<svg width="41" height="41" viewBox="0 0 41 41" fill="none" xmlns="http://www.w3.org/2000/svg">
<path d="M32.5008 10.4336C32.379 10.2719 32.2488 10.1167 32.1108 9.96861C32.2496 9.59877 32.355 9.21725 32.4258 8.82861C32.6348 7.4069 32.4533 5.95513 31.9008 4.62861C31.9008 4.62861 30.2208 4.10361 26.3658 6.69861C24.7292 6.24672 23.0387 6.01963 21.3408 6.02361C19.6381 6.02062 17.9427 6.24768 16.3008 6.69861C12.4458 4.07361 10.7658 4.62861 10.7658 4.62861C10.2199 5.94108 10.0385 7.3766 10.2408 8.78361C10.312 9.18841 10.4225 9.58529 10.5708 9.96861C10.4358 10.1186 10.3008 10.2836 10.1808 10.4336C9.06148 11.8376 8.46731 13.5883 8.50081 15.3836C8.49725 15.8094 8.51728 16.235 8.56081 16.6586C9.04081 23.3036 13.4658 24.8486 17.6808 25.3286C17.0842 25.8834 16.6797 26.6136 16.5258 27.4136C16.3864 27.9471 16.3208 28.4973 16.3308 29.0486V31.0136C14.6523 31.1636 12.9303 30.9191 12.3963 29.4221C11.8231 27.9893 10.8724 26.7385 9.64531 25.8026C9.55562 25.7541 9.4703 25.6979 9.39031 25.6346C9.28255 25.3514 9.09164 25.1075 8.84267 24.9348C8.59369 24.7621 8.2983 24.6688 7.99531 24.6671H7.98781C7.59128 24.6671 7.21088 24.8241 6.92979 25.1038C6.6487 25.3835 6.48979 25.7631 6.48781 26.1596C6.48331 27.3776 7.70281 28.1651 8.20231 28.4321C8.78589 29.0201 9.25533 29.7113 9.58681 30.4706C10.1328 32.0051 11.7303 34.3376 16.2858 34.0346L16.2888 34.1816L16.2948 34.5836C16.2948 34.9814 16.4528 35.363 16.7341 35.6443C17.0155 35.9256 17.397 36.0836 17.7948 36.0836H24.8658C25.2636 36.0836 25.6452 35.9256 25.9265 35.6443C26.2078 35.363 26.3658 34.9814 26.3658 34.5836C26.3658 34.5836 26.3778 29.8436 26.3778 29.0486C26.3878 28.4973 26.3222 27.9471 26.1828 27.4136L26.1798 27.4046L26.1858 27.4136C26.1723 27.3611 26.1528 27.3191 26.1378 27.2681C25.9707 26.5249 25.5839 25.8492 25.0278 25.3286L25.0458 25.3601L25.0158 25.3301C29.2308 24.8501 33.6258 23.2751 34.1058 16.6601C34.1493 16.2365 34.1694 15.8109 34.1658 15.3851C34.1924 13.5934 33.6048 11.8465 32.5008 10.4351V10.4336Z" fill="white" fill-opacity="0.9"/>
</svg>
