<svg width="41" height="41" viewBox="0 0 41 41" fill="none" xmlns="http://www.w3.org/2000/svg">
<path d="M6.32715 15.1539H12.5886V34.4039H6.32715V15.1539ZM29.6441 15.3797C29.5776 15.3587 29.5146 15.3359 29.4446 15.3167C29.3606 15.2977 29.276 15.2813 29.1909 15.2677C28.8212 15.1921 28.4448 15.154 28.0674 15.1539C24.4169 15.1539 22.1016 17.8087 21.3386 18.8342V15.1539H15.0771V34.4039H21.3386V23.9039C21.3386 23.9039 26.0707 17.3134 28.0674 22.1539V34.4039H34.3271V21.4137C34.3246 20.0314 33.8634 18.6891 33.0159 17.5971C32.1684 16.5051 30.9825 15.7252 29.6441 15.3797Z" fill="white" fill-opacity="0.9"/>
<path d="M9.38965 12.5289C11.081 12.5289 12.4521 11.1578 12.4521 9.46643C12.4521 7.77506 11.081 6.40393 9.38965 6.40393C7.69828 6.40393 6.32715 7.77506 6.32715 9.46643C6.32715 11.1578 7.69828 12.5289 9.38965 12.5289Z" fill="white" fill-opacity="0.9"/>
</svg>
